<mxfile host="app.diagrams.net" modified="2021-02-04T01:39:58.232Z" agent="5.0 (Windows NT 10.0; Win64; x64) AppleWebKit/537.36 (KHTML, like Gecko) Chrome/88.0.4324.104 Safari/537.36" etag="TSKCY7VAlgW4Ayk_3iRA" version="14.2.9" type="github">
  <diagram id="vKRgahUFl7z-B4n-kref" name="Page-1">
    <mxGraphModel dx="1038" dy="556" grid="1" gridSize="10" guides="1" tooltips="1" connect="1" arrows="1" fold="1" page="1" pageScale="1" pageWidth="827" pageHeight="1169" math="0" shadow="0">
      <root>
        <mxCell id="0" />
        <mxCell id="1" parent="0" />
        <mxCell id="vKPVgLRjj7xv1w4cH6gg-3" style="edgeStyle=orthogonalEdgeStyle;rounded=0;orthogonalLoop=1;jettySize=auto;html=1;shape=flexArrow;fillColor=#dae8fc;strokeColor=#6c8ebf;" edge="1" parent="1" source="vKPVgLRjj7xv1w4cH6gg-1" target="vKPVgLRjj7xv1w4cH6gg-2">
          <mxGeometry relative="1" as="geometry" />
        </mxCell>
        <mxCell id="vKPVgLRjj7xv1w4cH6gg-1" value="浏览器" style="ellipse;whiteSpace=wrap;html=1;fillColor=#dae8fc;strokeColor=#6c8ebf;" vertex="1" parent="1">
          <mxGeometry x="245" y="60" width="210" height="80" as="geometry" />
        </mxCell>
        <mxCell id="vKPVgLRjj7xv1w4cH6gg-14" style="edgeStyle=orthogonalEdgeStyle;shape=flexArrow;rounded=0;orthogonalLoop=1;jettySize=auto;html=1;gradientColor=#7ea6e0;fillColor=#dae8fc;strokeColor=#6c8ebf;" edge="1" parent="1" source="vKPVgLRjj7xv1w4cH6gg-2" target="vKPVgLRjj7xv1w4cH6gg-12">
          <mxGeometry relative="1" as="geometry" />
        </mxCell>
        <mxCell id="vKPVgLRjj7xv1w4cH6gg-2" value="" style="rounded=0;whiteSpace=wrap;html=1;fillColor=#f5f5f5;strokeColor=#666666;fontColor=#333333;" vertex="1" parent="1">
          <mxGeometry x="140" y="210" width="420" height="170" as="geometry" />
        </mxCell>
        <mxCell id="vKPVgLRjj7xv1w4cH6gg-4" value="&lt;b&gt;&lt;font style=&quot;font-size: 20px&quot;&gt;UI&lt;/font&gt;&lt;/b&gt;" style="shape=process;whiteSpace=wrap;html=1;backgroundOutline=1;size=0.025;fillColor=#fff2cc;strokeColor=#d6b656;" vertex="1" parent="1">
          <mxGeometry x="151" y="220" width="400" height="40" as="geometry" />
        </mxCell>
        <mxCell id="vKPVgLRjj7xv1w4cH6gg-5" value="&lt;b&gt;&lt;font style=&quot;font-size: 17px&quot;&gt;产品服务&lt;/font&gt;&lt;/b&gt;" style="shape=process;whiteSpace=wrap;html=1;backgroundOutline=1;fillColor=#f8cecc;strokeColor=#b85450;" vertex="1" parent="1">
          <mxGeometry x="150" y="270" width="120" height="40" as="geometry" />
        </mxCell>
        <mxCell id="vKPVgLRjj7xv1w4cH6gg-6" value="&lt;b&gt;&lt;font style=&quot;font-size: 14px&quot;&gt;产品&lt;/font&gt;&lt;/b&gt;" style="shape=process;whiteSpace=wrap;html=1;backgroundOutline=1;fillColor=#f8cecc;strokeColor=#b85450;" vertex="1" parent="1">
          <mxGeometry x="150" y="330" width="120" height="40" as="geometry" />
        </mxCell>
        <mxCell id="vKPVgLRjj7xv1w4cH6gg-7" value="&lt;b&gt;&lt;font style=&quot;font-size: 16px&quot;&gt;订单服务&lt;/font&gt;&lt;/b&gt;" style="shape=process;whiteSpace=wrap;html=1;backgroundOutline=1;fillColor=#e1d5e7;strokeColor=#9673a6;" vertex="1" parent="1">
          <mxGeometry x="290" y="270" width="120" height="40" as="geometry" />
        </mxCell>
        <mxCell id="vKPVgLRjj7xv1w4cH6gg-9" value="&lt;b&gt;&lt;font style=&quot;font-size: 16px&quot;&gt;用户服务&lt;/font&gt;&lt;/b&gt;" style="shape=process;whiteSpace=wrap;html=1;backgroundOutline=1;fillColor=#ffe6cc;strokeColor=#d79b00;" vertex="1" parent="1">
          <mxGeometry x="430" y="270" width="120" height="40" as="geometry" />
        </mxCell>
        <mxCell id="vKPVgLRjj7xv1w4cH6gg-10" value="&lt;b&gt;&lt;font style=&quot;font-size: 14px&quot;&gt;订单&lt;/font&gt;&lt;/b&gt;" style="shape=process;whiteSpace=wrap;html=1;backgroundOutline=1;fillColor=#e1d5e7;strokeColor=#9673a6;" vertex="1" parent="1">
          <mxGeometry x="290" y="330" width="120" height="40" as="geometry" />
        </mxCell>
        <mxCell id="vKPVgLRjj7xv1w4cH6gg-11" value="&lt;b&gt;&lt;font style=&quot;font-size: 14px&quot;&gt;用户&lt;/font&gt;&lt;/b&gt;" style="shape=process;whiteSpace=wrap;html=1;backgroundOutline=1;fillColor=#ffe6cc;strokeColor=#d79b00;" vertex="1" parent="1">
          <mxGeometry x="430" y="330" width="120" height="40" as="geometry" />
        </mxCell>
        <mxCell id="vKPVgLRjj7xv1w4cH6gg-12" value="&lt;b&gt;&lt;font style=&quot;font-size: 18px&quot;&gt;数据库&lt;/font&gt;&lt;/b&gt;" style="shape=datastore;whiteSpace=wrap;html=1;gradientColor=#7ea6e0;fillColor=#dae8fc;strokeColor=#6c8ebf;" vertex="1" parent="1">
          <mxGeometry x="255" y="430" width="190" height="90" as="geometry" />
        </mxCell>
      </root>
    </mxGraphModel>
  </diagram>
</mxfile>
